<svg width="100%" viewBox="0 0 680 620" xmlns="http://www.w3.org/2000/svg">
<defs>
  <marker id="arrow" viewBox="0 0 10 10" refX="8" refY="5" markerWidth="6" markerHeight="6" orient="auto-start-reverse">
    <path d="M2 1L8 5L2 9" fill="none" stroke="context-stroke" stroke-width="1.5" stroke-linecap="round" stroke-linejoin="round"/>
  </marker>
</defs>

<!-- Background -->
<rect width="680" height="620" fill="#ffffff"/>

<!-- ── Col 1: Clients ── -->
<text font-family="sans-serif" font-size="12" fill="#666" x="65" y="65" text-anchor="middle">Clients</text>
<rect x="20" y="80" width="90" height="44" rx="8" fill="#E6F1FB" stroke="#378ADD" stroke-width="0.5"/>
<text font-family="sans-serif" font-size="13" font-weight="500" fill="#0C447C" x="65" y="107" text-anchor="middle">Client</text>
<rect x="20" y="140" width="90" height="44" rx="8" fill="#E6F1FB" stroke="#378ADD" stroke-width="0.5"/>
<text font-family="sans-serif" font-size="13" font-weight="500" fill="#0C447C" x="65" y="167" text-anchor="middle">Locust</text>

<!-- ── Col 2: Nginx ── -->
<text font-family="sans-serif" font-size="12" fill="#666" x="205" y="85" text-anchor="middle">Load Balancer</text>
<rect x="155" y="100" width="100" height="64" rx="8" fill="#EEEDFE" stroke="#534AB7" stroke-width="0.5"/>
<text font-family="sans-serif" font-size="13" font-weight="500" fill="#3C3489" x="205" y="125" text-anchor="middle">Nginx LB</text>
<text font-family="sans-serif" font-size="11" fill="#534AB7" x="205" y="149" text-anchor="middle">:8000</text>

<!-- ── Col 3: Dispatchers ── -->
<text font-family="sans-serif" font-size="12" fill="#666" x="375" y="65" text-anchor="middle">Dispatchers</text>
<rect x="310" y="80" width="130" height="44" rx="8" fill="#E1F5EE" stroke="#1D9E75" stroke-width="0.5"/>
<text font-family="sans-serif" font-size="13" font-weight="500" fill="#085041" x="375" y="97" text-anchor="middle">Dispatcher 1</text>
<text font-family="sans-serif" font-size="11" fill="#0F6E56" x="375" y="113" text-anchor="middle">:8001</text>
<rect x="310" y="140" width="130" height="44" rx="8" fill="#E1F5EE" stroke="#1D9E75" stroke-width="0.5"/>
<text font-family="sans-serif" font-size="13" font-weight="500" fill="#085041" x="375" y="157" text-anchor="middle">Dispatcher 2</text>
<text font-family="sans-serif" font-size="11" fill="#0F6E56" x="375" y="173" text-anchor="middle">:8002</text>

<!-- ── Col 4: Drivers ── -->
<text font-family="sans-serif" font-size="12" fill="#666" x="555" y="48" text-anchor="middle">Drivers</text>
<rect x="500" y="60" width="110" height="36" rx="8" fill="#FAEEDA" stroke="#BA7517" stroke-width="0.5"/>
<text font-family="sans-serif" font-size="12" font-weight="500" fill="#633806" x="555" y="83" text-anchor="middle">Driver 1 :9001</text>
<rect x="500" y="106" width="110" height="36" rx="8" fill="#FAEEDA" stroke="#BA7517" stroke-width="0.5"/>
<text font-family="sans-serif" font-size="12" font-weight="500" fill="#633806" x="555" y="129" text-anchor="middle">Driver 2 :9002</text>
<rect x="500" y="152" width="110" height="36" rx="8" fill="#FAEEDA" stroke="#BA7517" stroke-width="0.5"/>
<text font-family="sans-serif" font-size="12" font-weight="500" fill="#633806" x="555" y="175" text-anchor="middle">Driver 3 :9003</text>
<rect x="500" y="198" width="110" height="36" rx="8" fill="#FAEEDA" stroke="#BA7517" stroke-width="0.5"/>
<text font-family="sans-serif" font-size="12" font-weight="500" fill="#633806" x="555" y="221" text-anchor="middle">Driver 4 :9004</text>
<rect x="500" y="244" width="110" height="36" rx="8" fill="#FAEEDA" stroke="#BA7517" stroke-width="0.5"/>
<text font-family="sans-serif" font-size="12" font-weight="500" fill="#633806" x="555" y="267" text-anchor="middle">Driver 5 :9005</text>

<!-- ── Divider ── -->
<text font-family="sans-serif" font-size="12" fill="#666" x="240" y="308" text-anchor="middle">Redis State &amp; Queues</text>
<line x1="30" y1="315" x2="650" y2="315" stroke="#ccc" stroke-width="0.5"/>

<!-- ── Redis Structures ── -->
<rect x="40" y="330" width="150" height="50" rx="8" fill="#FAEEDA" stroke="#BA7517" stroke-width="0.5"/>
<text font-family="sans-serif" font-size="13" font-weight="500" fill="#633806" x="115" y="351" text-anchor="middle">ride:queue</text>
<text font-family="sans-serif" font-size="11" fill="#854F0B" x="115" y="369" text-anchor="middle">Redis List</text>

<rect x="220" y="330" width="160" height="50" rx="8" fill="#FAEEDA" stroke="#BA7517" stroke-width="0.5"/>
<text font-family="sans-serif" font-size="13" font-weight="500" fill="#633806" x="300" y="351" text-anchor="middle">driver:queue</text>
<text font-family="sans-serif" font-size="11" fill="#854F0B" x="300" y="369" text-anchor="middle">atomic LPOP</text>

<rect x="410" y="330" width="180" height="50" rx="8" fill="#FAECE7" stroke="#993C1D" stroke-width="0.5"/>
<text font-family="sans-serif" font-size="12" font-weight="500" fill="#4A1B0C" x="500" y="351" text-anchor="middle">pending_assignments</text>
<text font-family="sans-serif" font-size="11" fill="#993C1D" x="500" y="369" text-anchor="middle">Sorted Set</text>

<!-- ── Watchdog ── -->
<rect x="220" y="420" width="160" height="50" rx="8" fill="#FAECE7" stroke="#993C1D" stroke-width="0.5"/>
<text font-family="sans-serif" font-size="13" font-weight="500" fill="#4A1B0C" x="300" y="440" text-anchor="middle">Watchdog</text>
<text font-family="sans-serif" font-size="11" fill="#993C1D" x="300" y="458" text-anchor="middle">TTL rescue, every 5s</text>

<!-- ── Observability ── -->
<text font-family="sans-serif" font-size="12" fill="#666" x="340" y="510" text-anchor="middle">Observability</text>
<rect x="40" y="520" width="120" height="44" rx="8" fill="#F1EFE8" stroke="#888780" stroke-width="0.5"/>
<text font-family="sans-serif" font-size="13" font-weight="500" fill="#2C2C2A" x="100" y="537" text-anchor="middle">Prometheus</text>
<text font-family="sans-serif" font-size="11" fill="#5F5E5A" x="100" y="553" text-anchor="middle">:9090</text>

<rect x="180" y="520" width="110" height="44" rx="8" fill="#F1EFE8" stroke="#888780" stroke-width="0.5"/>
<text font-family="sans-serif" font-size="13" font-weight="500" fill="#2C2C2A" x="235" y="537" text-anchor="middle">Grafana</text>
<text font-family="sans-serif" font-size="11" fill="#5F5E5A" x="235" y="553" text-anchor="middle">:3000</text>

<rect x="310" y="520" width="130" height="44" rx="8" fill="#F1EFE8" stroke="#888780" stroke-width="0.5"/>
<text font-family="sans-serif" font-size="13" font-weight="500" fill="#2C2C2A" x="375" y="537" text-anchor="middle">RedisInsight</text>
<text font-family="sans-serif" font-size="11" fill="#5F5E5A" x="375" y="553" text-anchor="middle">:5540</text>

<rect x="460" y="520" width="110" height="44" rx="8" fill="#F1EFE8" stroke="#888780" stroke-width="0.5"/>
<text font-family="sans-serif" font-size="13" font-weight="500" fill="#2C2C2A" x="515" y="537" text-anchor="middle">Locust UI</text>
<text font-family="sans-serif" font-size="11" fill="#5F5E5A" x="515" y="553" text-anchor="middle">:8089</text>

<!-- ══ EDGES ══ -->

<!-- Clients → Nginx -->
<line x1="110" y1="102" x2="153" y2="120" stroke="#666" stroke-width="1" marker-end="url(#arrow)" fill="none"/>
<line x1="110" y1="162" x2="153" y2="142" stroke="#666" stroke-width="1" marker-end="url(#arrow)" fill="none"/>

<!-- Nginx → Dispatchers -->
<line x1="255" y1="118" x2="308" y2="104" stroke="#666" stroke-width="1" marker-end="url(#arrow)" fill="none"/>
<line x1="255" y1="146" x2="308" y2="160" stroke="#666" stroke-width="1" marker-end="url(#arrow)" fill="none"/>

<!-- Dispatchers → Drivers (dashed amber) -->
<line x1="440" y1="96"  x2="498" y2="84"  stroke="#EF9F27" stroke-width="1" stroke-dasharray="4 3" marker-end="url(#arrow)" fill="none"/>
<line x1="440" y1="106" x2="498" y2="124" stroke="#EF9F27" stroke-width="1" stroke-dasharray="4 3" marker-end="url(#arrow)" fill="none"/>
<line x1="440" y1="160" x2="498" y2="170" stroke="#EF9F27" stroke-width="1" stroke-dasharray="4 3" marker-end="url(#arrow)" fill="none"/>
<line x1="440" y1="168" x2="498" y2="216" stroke="#EF9F27" stroke-width="1" stroke-dasharray="4 3" marker-end="url(#arrow)" fill="none"/>
<line x1="440" y1="174" x2="498" y2="262" stroke="#EF9F27" stroke-width="1" stroke-dasharray="4 3" marker-end="url(#arrow)" fill="none"/>

<!-- Dispatchers → ride:queue -->
<path d="M375 184 L375 220 L115 220 L115 328" fill="none" stroke="#666" stroke-width="1" marker-end="url(#arrow)"/>

<!-- Dispatchers → driver:queue -->
<path d="M375 184 L375 230 L300 230 L300 328" fill="none" stroke="#1D9E75" stroke-width="1" stroke-dasharray="4 3" marker-end="url(#arrow)"/>

<!-- Dispatchers → pending_assignments -->
<path d="M440 162 L495 270 L495 328" fill="none" stroke="#aaa" stroke-width="1" marker-end="url(#arrow)"/>

<!-- Drivers → driver:queue re-register -->
<path d="M555 280 L555 300 L620 300 L620 355 L382 355" fill="none" stroke="#EF9F27" stroke-width="1" stroke-dasharray="4 3" marker-end="url(#arrow)"/>

<!-- Watchdog → pending_assignments -->
<line x1="380" y1="445" x2="412" y2="382" stroke="#D85A30" stroke-width="1" stroke-dasharray="4 3" marker-end="url(#arrow)" fill="none"/>

<!-- Watchdog → driver:queue rescue -->
<line x1="300" y1="420" x2="300" y2="382" stroke="#D85A30" stroke-width="1" stroke-dasharray="4 3" marker-end="url(#arrow)" fill="none"/>

<!-- Prometheus scrapes dispatchers -->
<path d="M100 520 L100 490 L375 490 L375 186" fill="none" stroke="#aaa" stroke-width="0.8" stroke-dasharray="3 3" marker-end="url(#arrow)"/>

<!-- Grafana → Prometheus -->
<line x1="235" y1="520" x2="162" y2="564" stroke="#aaa" stroke-width="0.8" stroke-dasharray="3 3" marker-end="url(#arrow)" fill="none"/>

<!-- ── Legend ── -->
<line x1="40" y1="600" x2="65" y2="600" stroke="#666" stroke-width="1" marker-end="url(#arrow)" fill="none"/>
<text font-family="sans-serif" font-size="11" fill="#666" x="70" y="604">REST / HTTP</text>

<line x1="170" y1="600" x2="195" y2="600" stroke="#EF9F27" stroke-width="1" stroke-dasharray="4 3" marker-end="url(#arrow)" fill="none"/>
<text font-family="sans-serif" font-size="11" fill="#666" x="200" y="604">Redis queue op</text>

<line x1="320" y1="600" x2="345" y2="600" stroke="#D85A30" stroke-width="1" stroke-dasharray="4 3" marker-end="url(#arrow)" fill="none"/>
<text font-family="sans-serif" font-size="11" fill="#666" x="350" y="604">Watchdog rescue</text>

<line x1="480" y1="600" x2="505" y2="600" stroke="#aaa" stroke-width="0.8" stroke-dasharray="3 3" marker-end="url(#arrow)" fill="none"/>
<text font-family="sans-serif" font-size="11" fill="#666" x="510" y="604">Observability</text>
</svg>
